<?xml version="1.0" encoding="UTF-8"?>
<svg id="Forground" xmlns="http://www.w3.org/2000/svg" width="450mm" height="300mm" version="1.1" viewBox="0 0 1275.6 850.4">
  <!-- Generator: Adobe Illustrator 29.2.1, SVG Export Plug-In . SVG Version: 2.1.0 Build 116)  -->
  <g id="SPLINE">
    <path d="M854.4,0c2.2,87.8,27.4,172.2,77.9,244.1,70.5,100.2,182.9,165.4,305.8,177.5,8.5.8,21.4,2.2,37.5,2.4v426.4c-57.4-2.3-113.6-6.4-169.9-17.6C753.7,763.2,478.3,465.7,433.6,111.7l-7.6-70.7v807H0V0h854.4Z" fill="none" stroke="#000" stroke-linecap="round" stroke-linejoin="round"/>
  </g>
  <g id="HATCH">
    <path d="M854.4,0c2.2,87.8,27.4,172.2,77.9,244.1,70.5,100.2,182.9,165.4,305.8,177.5,8.5.8,21.4,2.2,37.5,2.4v426.4c-57.4-2.3-113.6-6.4-169.9-17.6C753.7,763.2,478.3,465.7,433.6,111.7l-7.6-70.7v807H0V0h854.4Z" fill="#fff"/>
  </g>
</svg>
